<svg xmlns="http://www.w3.org/2000/svg" xmlns:xlink="http://www.w3.org/1999/xlink" width="220px" height="377px" viewBox="0 0 120 177" version="1.1">
    <!-- Generator: sketchtool 54.1 (76490) - https://sketchapp.com -->
    <title>C5ADF1EB-9FB8-4D02-AC3E-BB32FC6DE9D2</title>
    <desc>Created with sketchtool.</desc>
    <defs>
        <polygon id="path-1" points="76.1986047 75.8945581 76.1986047 0.54572093 0.849906977 0.54572093 0.849906977 75.8945581 76.1986047 75.8945581"/>
        <polygon id="path-3" points="48.8552093 0.680930233 0.558092091 0.680930233 0.558092091 29.6415931 48.8552093 29.6415931 48.8552093 0.680930233"/>
    </defs>
    <g id="LOGIN" stroke="none" stroke-width="1" fill="none" fill-rule="evenodd">
        <g id="LOGIN_07_01" transform="translate(-120.000000, -78.000000)">
            <g id="Character" transform="translate(120.000000, 77.000000)">
                <g id="shadow-copy-2" transform="translate(0.000000, 163.255814)">
                    <ellipse id="Oval-Copy" fill="#F7F9FA" cx="60" cy="6.97674419" rx="60" ry="6.97674419"/>
                    <ellipse id="Oval" fill="Orenge" cx="59.3023256" cy="6.97674419" rx="24.4186047" ry="2.79069767"/>
                </g>
                <g id="Person-8" transform="translate(20.930233, 0.000000)">
                    <path d="M48.2917674,106.86014 L28.7568837,106.86014 C14.1154884,106.86014 2.24525581,118.730372 2.24525581,133.371767 L2.24525581,145.929907 C2.24525581,149.012233 4.74432558,151.511302 7.82665116,151.511302 L69.222,151.511302 C72.3043256,151.511302 74.8033953,149.012233 74.8033953,145.929907 L74.8033953,133.371767 C74.8033953,118.730372 62.9331628,106.86014 48.2917674,106.86014" id="Fill-1" fill="#F7D4AA"/>
                    <path d="M74.8033953,145.929907 L74.8033953,133.371767 C74.8033953,119.670837 64.4080465,108.399209 51.0754884,107.008047 C50.9945581,113.874558 45.4103721,119.418279 38.5243256,119.418279 C31.6382791,119.418279 26.054093,113.874558 25.9731628,107.008047 C12.6406047,108.399209 2.24525581,119.670837 2.24525581,133.371767 L2.24525581,145.929907 L17.594093,145.929907 L17.594093,151.511302 L59.4545581,151.511302 L59.4545581,145.929907 L74.8033953,145.929907 Z" id="Fill-3" fill="#f37921"/>
                    <path d="M33.5909302,167.108603 L17.5946512,151.395349 L59.4551163,151.395349 L43.4574419,167.108603 C40.7323256,169.785504 36.3160465,169.785504 33.5909302,167.108603" id="Fill-5" fill="#f37921"/>
                    <path d="M38.5243256,121.511302 C46.4471163,121.511302 52.9033953,115.187581 53.1517674,107.324791 C52.4666512,107.196419 51.7773488,107.082 51.0754884,107.008047 C50.9945581,113.874558 45.4103721,119.418279 38.5243256,119.418279 C31.6382791,119.418279 26.054093,113.874558 25.9731628,107.008047 C25.2713023,107.082 24.582,107.196419 23.8968837,107.324791 C24.1452558,115.187581 30.6015349,121.511302 38.5243256,121.511302" id="Fill-8" fill="#f12821"/>
                    <path d="M38.5243256,119.418279 L38.5243256,119.418279 C33.9001395,119.418279 30.1522326,115.670372 30.1522326,111.046186 L30.1522326,91.5113023 L46.8964186,91.5113023 L46.8964186,111.046186 C46.8964186,115.670372 43.1485116,119.418279 38.5243256,119.418279" id="Fill-10" fill="#F7D4AA"/>
                    <path d="M46.8964186,104.069442 C46.8964186,104.069442 40.6466512,105.464791 38.5243256,105.464791 C36.402,105.464791 30.1522326,104.069442 30.1522326,104.069442 L30.1522326,101.278744 C30.1522326,101.278744 36.402,102.674093 38.5243256,102.674093 C40.6466512,102.674093 46.8964186,101.278744 46.8964186,101.278744 L46.8964186,104.069442 Z" id="Fill-12" fill="#292929" opacity="0.200000003"/>
                    <g id="Group-16" transform="translate(0.000000, 7.691163)">
                        <mask id="mask-2" fill="white">
                            <use xlink:href="#path-1"/>
                        </mask>
                        <g id="Clip-15"/>
                        <path d="M76.1987442,38.2201395 C76.1987442,59.0275814 59.3317674,75.8945581 38.5243256,75.8945581 C17.7168837,75.8945581 0.849906977,59.0275814 0.849906977,38.2201395 C0.849906977,17.4126977 17.7168837,0.54572093 38.5243256,0.54572093 C59.3317674,0.54572093 76.1987442,17.4126977 76.1987442,38.2201395" id="Fill-14" fill="#5F5C61" mask="url(#mask-2)"/>
                    </g>
                    <path d="M76.0583721,63.6743721 C76.0583721,67.4892558 72.9662791,70.5813488 69.1513953,70.5813488 C65.337907,70.5813488 62.245814,67.4892558 62.245814,63.6743721 C62.245814,59.8594884 65.337907,56.7673953 69.1513953,56.7673953 C72.9662791,56.7673953 76.0583721,59.8594884 76.0583721,63.6743721" id="Fill-17" fill="#E9C6A0"/>
                    <path d="M14.8033953,63.6743721 C14.8033953,67.4892558 11.7113023,70.5813488 7.8964186,70.5813488 C4.08293023,70.5813488 0.990837209,67.4892558 0.990837209,63.6743721 C0.990837209,59.8594884 4.08293023,56.7673953 7.8964186,56.7673953 C11.7113023,56.7673953 14.8033953,59.8594884 14.8033953,63.6743721" id="Fill-19" fill="#E9C6A0"/>
                    <path d="M38.5243256,101.278744 L38.5243256,101.278744 C21.5708372,101.278744 7.82665116,87.5345581 7.82665116,70.5810698 L7.82665116,44.0694419 C7.82665116,27.1159535 21.5708372,13.3717674 38.5243256,13.3717674 L38.5243256,13.3717674 C55.477814,13.3717674 69.222,27.1159535 69.222,44.0694419 L69.222,70.5810698 C69.222,87.5345581 55.477814,101.278744 38.5243256,101.278744" id="Fill-21" fill="#F7D4AA"/>
                    <path d="M41.8392558,72.8871628 C41.3899535,73.0169302 40.7229767,73.2220465 40.1048372,73.416 C39.0736744,73.7383256 37.9741395,73.7383256 36.9429767,73.4173953 C36.3234419,73.2248372 35.6536744,73.0197209 35.2057674,72.8913488" id="Stroke-23" stroke="#EAB78A" stroke-width="2" stroke-linecap="round"/>
                    <path d="M17.8692558,66.8486512 C17.8999535,64.4026047 19.6427442,62.2342326 22.1390233,61.7556279 C24.3994884,61.3230698 26.5985581,62.4086512 27.6855349,64.2965581" id="Stroke-25" stroke="#4D4C4E" stroke-width="2" stroke-linecap="round"/>
                    <path d="M59.1793953,66.8486512 C59.1486977,64.4026047 57.405907,62.2342326 54.9096279,61.7556279 C52.6491628,61.3230698 50.450093,62.4086512 49.3631163,64.2965581" id="Stroke-27" stroke="#4D4C4E" stroke-width="2" stroke-linecap="round"/>
                    <path d="M0.121953488,9.18572093 C0.121953488,9.18572093 -1.25386047,21.8485116 5.23869767,32.557814 C10.8773023,41.8606047 20.5261395,45.3894419 22.0986977,45.9113023 C23.6293953,46.4192093 34.0749767,48.7787442 49.4224186,47.1964186 C68.6754419,45.2122326 73.4824186,33.0601395 73.4824186,33.0601395 L59.1786977,17.5745581 L29.1033488,9.44944186 C29.1033488,9.44944186 10.6205581,21.8596744 0.121953488,9.18572093" id="Fill-29" fill="#5F5C61"/>
                    <g id="Group-33" transform="translate(11.162791, 0.714419)">
                        <mask id="mask-4" fill="white">
                            <use xlink:href="#path-3"/>
                        </mask>
                        <g id="Clip-32"/>
                        <path d="M2.80869767,0.680511628 C2.80869767,0.680511628 -3.83037209,17.7735349 5.69706977,24.0526047 C15.2245116,30.3316744 35.2366047,29.5907442 37.190093,29.634 C46.4691628,29.841907 48.8552093,20.6800465 48.8552093,20.6800465 C48.8552093,20.6800465 5.69706977,11.3786512 2.80869767,0.680511628" id="Fill-31" fill="#5F5C61" mask="url(#mask-4)"/>
                    </g>
                    <polygon id="Fill-34" fill="#f12821" points="2.24511628 145.929767 17.5939535 145.929767 17.5939535 143.13907 2.24511628 143.13907"/>
                    <polygon id="Fill-36" fill="#292929" opacity="0.200000003" points="13.407907 151.511163 17.5939535 151.511163 17.5939535 143.13907 13.407907 143.13907"/>
                    <polygon id="Fill-38" fill="#f12821" points="59.4544186 145.929767 74.8032558 145.929767 74.8032558 143.13907 59.4544186 143.13907"/>
                    <polygon id="Fill-40" fill="#292929" opacity="0.200000003" points="59.4544186 151.511163 63.6404651 151.511163 63.6404651 143.13907 59.4544186 143.13907"/>
                    <path d="M69.2295349,49.8456279 L69.2253488,65.0033023 C69.2239535,72.7084186 62.9769767,78.9526047 55.2718605,78.9526047 L38.5248837,78.9526047 L21.7765116,78.9526047 C14.0713953,78.9526047 7.8244186,72.7084186 7.82302326,65.0033023 L7.81883721,49.8456279 L6.43186047,49.8456279 L6.43186047,76.2512093 C6.43186047,77.421907 6.55883721,78.5967907 6.89651163,79.7186512 C10.2160465,90.7056279 18.9746512,99.2912093 30.0090698,102.25493 C31.3709302,102.620512 37.437907,104.068884 38.5248837,104.068884 C39.6104651,104.068884 45.6774419,102.620512 47.0393023,102.25493 C58.0737209,99.2912093 66.8323256,90.7056279 70.1518605,79.7186512 C70.4909302,78.5967907 70.617907,77.421907 70.617907,76.2512093 L70.617907,49.8456279 L69.2295349,49.8456279 Z" id="Fill-42" fill="#5F5C61"/>
                    <path d="M53.3967907,83.738093 C51.0372558,89.6390233 45.2674884,93.8069302 38.5237674,93.8069302 C31.7814419,93.8069302 26.0116744,89.6390233 23.6521395,83.738093 L53.3967907,83.738093 Z" id="Fill-44" fill="#FEFEFE"/>
                    <path d="M52.300186,85.9540465 C52.7187907,85.248 53.0885581,84.5084651 53.3969302,83.7382326 L23.6522791,83.7382326 C23.9606512,84.5084651 24.3290233,85.248 24.7490233,85.9540465 L52.300186,85.9540465 Z" id="Fill-46" fill="#292929" opacity="0.200000003"/>
                </g>
            </g>
        </g>
    </g>
</svg>