<?xml version="1.0" encoding="UTF-8"?>
<svg width="345px" height="534px" viewBox="0 0 345 534" version="1.1" xmlns="http://www.w3.org/2000/svg" xmlns:xlink="http://www.w3.org/1999/xlink">
    <!-- Generator: sketchtool 54.1 (76490) - https://sketchapp.com -->
    <title>1569AD8E-9E88-461A-8095-BD2848D62335</title>
    <desc>Created with sketchtool.</desc>
    <defs>
        <polygon id="path-1" points="2.7939834 0.610562067 494.13112 0.610562067 494.13112 423.236515 2.7939834 423.236515"></polygon>
        <polygon id="path-3" points="0 0.428215768 422.62706 0.428215768 422.62706 491.76639 0 491.76639"></polygon>
    </defs>
    <g id="SPLASH" stroke="none" stroke-width="1" fill="none" fill-rule="evenodd" opacity="0.117931548">
        <g id="SPLASH-SCREEN_01" transform="translate(-15.000000, -106.000000)">
            <g id="Group">
                <g id="Group-19" transform="translate(15.000000, -38.000000)">
                    <path d="M366.384232,269.911618 L260.927801,164.459336 C234.305394,137.83278 191.143568,137.83278 164.517012,164.455187 C137.894606,191.081743 137.894606,234.247718 164.517012,260.870124 L269.973444,366.322407 L366.384232,269.911618 Z" id="Fill-1" fill="#62DCCB"></path>
                    <path d="M592.764315,19.9356846 L305.021577,307.678423 C303.880498,308.819502 302.673029,309.877593 301.46556,310.927386 C300.46971,311.76971 299.461411,312.595436 298.436515,313.387967 L298.436515,313.387967 C274.689627,331.757261 240.834855,333.180498 217.776763,314.126556 L269.287137,365.636929 L269.229046,365.69917 L290.046473,386.396266 L306.353527,402.70332 C306.357676,402.707469 306.357676,402.707469 306.357676,402.711618 C306.365975,402.715768 306.370124,402.724066 306.378423,402.732365 C308.415768,404.76556 310.569295,406.591286 312.780913,408.313278 C313.253942,408.678423 313.73527,409.014523 314.212448,409.36722 C316.411618,410.989627 318.681328,412.475104 321.017427,413.798755 L321.241494,413.935685 C321.241494,413.931535 321.245643,413.935685 321.245643,413.935685 C321.245643,413.935685 321.245643,413.935685 321.249793,413.935685 C326.656432,416.973029 332.382573,419.201245 338.270539,420.649378 C349.233195,423.342324 360.697925,423.288382 371.635685,420.470954 C371.673029,420.462656 372.083817,420.358921 372.112863,420.350622 C377.710373,418.865145 383.137759,416.649378 388.282988,413.715768 C388.341079,413.686722 389.901245,412.76556 389.946888,412.736515 C391.527801,411.773859 393.075519,410.740664 394.590041,409.636929 C394.627386,409.612033 396.33278,408.346473 396.457261,408.246888 C397.270539,407.616183 398.071369,406.960581 398.8639,406.284232 L398.8639,406.284232 C400.112863,405.213693 401.361826,404.143154 402.548548,402.973029 C402.631535,402.894191 689.179253,116.346473 689.179253,116.346473 C715.760166,89.7655602 715.760166,46.5165975 689.179253,19.9356846 C662.594191,-6.64522822 619.345228,-6.64522822 592.764315,19.9356846" id="Fill-3" fill="#454E74"></path>
                    <g id="Group-9" transform="translate(286.307054, 574.979253)">
                        <mask id="mask-2" fill="white">
                            <use xlink:href="#path-1"></use>
                        </mask>
                        <g id="Clip-8"></g>
                        <path d="M119.143568,403.298755 L406.886307,115.560166 C408.031535,114.414938 409.234855,113.356846 410.446473,112.311203 C411.438174,111.46473 412.446473,110.643154 413.471369,109.850622 L413.471369,109.846473 C437.222407,91.4813278 471.077178,90.0539419 494.13112,109.107884 L442.620747,57.5975104 L442.678838,57.5352697 L421.861411,36.8381743 L405.554357,20.5311203 L405.550207,20.526971 C405.541909,20.5186722 405.537759,20.5103734 405.529461,20.5020747 C403.496266,18.4688797 401.338589,16.6473029 399.13112,14.9253112 C398.658091,14.5560166 398.172614,14.219917 397.695436,13.8713693 C395.496266,12.2448133 393.226556,10.7593361 390.890456,9.43568465 C390.815768,9.39004149 390.741079,9.34439834 390.66639,9.30290456 C390.66639,9.30290456 390.66639,9.30290456 390.662241,9.29875519 L390.662241,9.29875519 C385.251452,6.26141079 379.525311,4.03319502 373.637344,2.58506224 C362.674689,-0.10373444 351.209959,-0.0497925311 340.272199,2.76763485 C340.234855,2.77593361 339.824066,2.87966805 339.795021,2.88381743 C334.19751,4.36929461 328.770124,6.58506224 323.624896,9.5186722 C323.566805,9.55186722 322.010788,10.473029 321.960996,10.4979253 C320.384232,11.4605809 318.836515,12.4937759 317.321992,13.5975104 C317.280498,13.6224066 315.579253,14.8879668 315.454772,14.9875519 C314.637344,15.6182573 313.836515,16.2738589 313.048133,16.9502075 L313.043983,16.9502075 C313.043983,16.9543568 313.043983,16.9543568 313.043983,16.9543568 C311.795021,18.0207469 310.550207,19.0954357 309.359336,20.2614108 C309.276349,20.3443983 22.7327801,306.892116 22.7327801,306.892116 C-3.85228216,333.473029 -3.85228216,376.717842 22.7327801,403.298755 C49.3136929,429.883817 92.5626556,429.883817 119.143568,403.298755" id="Fill-7" fill="#454E74" mask="url(#mask-2)"></path>
                    </g>
                    <path d="M269.913278,631.83112 L164.456846,737.287552 C137.83444,763.909959 137.83444,807.075934 164.456846,833.69834 C191.079253,860.320747 234.245228,860.320747 260.871784,833.69834 L366.324066,728.241909 L269.913278,631.83112 Z" id="Fill-14" fill="#62DCCB"></path>
                    <g id="Group-18" transform="translate(0.000000, 288.672199)">
                        <mask id="mask-4" fill="white">
                            <use xlink:href="#path-3"></use>
                        </mask>
                        <g id="Clip-17"></g>
                        <path d="M19.9352697,116.778838 L307.678008,404.521577 C308.823237,405.666805 309.877178,406.870124 310.926971,408.077593 C311.773444,409.073444 312.595021,410.081743 313.387552,411.106639 L313.387552,411.106639 C331.756846,434.853527 333.180083,468.712448 314.13029,491.76639 L365.640664,440.256017 L365.698755,440.314108 L386.395851,419.49668 L402.702905,403.189627 C402.707054,403.185477 402.707054,403.185477 402.711203,403.185477 C402.715353,403.177178 402.723651,403.173029 402.73195,403.16473 C404.769295,401.127386 406.590871,398.973859 408.312863,396.762241 C408.682158,396.293361 409.014108,395.807884 409.366805,395.330705 C410.989212,393.127386 412.474689,390.861826 413.79834,388.525726 L413.93527,388.30166 C413.93527,388.30166 413.93527,388.30166 413.93527,388.29751 L413.939419,388.29751 C416.976763,382.886722 419.204979,377.160581 420.648963,371.272614 C423.341909,360.309959 423.287967,348.845228 420.470539,337.907469 C420.462241,337.870124 420.358506,337.459336 420.350207,337.43029 C418.86888,331.83278 416.653112,326.405394 413.719502,321.260166 C413.686307,321.202075 412.765145,319.641909 412.7361,319.596266 C411.773444,318.019502 410.744398,316.471784 409.640664,314.957261 C409.611618,314.915768 408.346058,313.210373 408.250622,313.085892 C407.615768,312.272614 406.964315,311.471784 406.287967,310.679253 C406.287967,310.679253 406.283817,310.679253 406.283817,310.679253 L406.283817,310.679253 C405.213278,309.43029 404.142739,308.181328 402.972614,306.994606 C402.893776,306.911618 116.346058,20.3639004 116.346058,20.3639004 C89.7651452,-6.21701245 46.5161826,-6.21701245 19.9352697,20.3639004 C-6.64564315,46.9489627 -6.64564315,90.1979253 19.9352697,116.778838" id="Fill-16" fill="#454E74" mask="url(#mask-4)"></path>
                    </g>
                </g>
            </g>
        </g>
    </g>
</svg>