<?xml version="1.0" encoding="UTF-8"?>
<svg width="195px" height="36px" viewBox="0 0 195 36" version="1.1" xmlns="http://www.w3.org/2000/svg" xmlns:xlink="http://www.w3.org/1999/xlink">
    <!-- Generator: sketchtool 54.1 (76490) - https://sketchapp.com -->
    <title>1FEA4268-AABA-4C81-AC6D-E95648F3628A</title>
    <desc>Created with sketchtool.</desc>
    <defs>
        <polygon id="path-1" points="0.0430066116 0.0639669421 25.8442959 0.0639669421 25.8442959 35.8511802 0.0430066116 35.8511802"></polygon>
        <polygon id="path-3" points="0.0120049587 0.0639669421 19.1727818 0.0639669421 19.1727818 35.8511504 0.0120049587 35.8511504"></polygon>
        <polygon id="path-5" points="0.0752280992 0.0639669421 30.3879719 0.0639669421 30.3879719 35.8511802 0.0752280992 35.8511802"></polygon>
        <polygon id="path-7" points="0.100167769 0.021889407 17.7152132 0.021889407 17.7152132 15.1735537 0.100167769 15.1735537"></polygon>
        <polygon id="path-9" points="0 0.0153520661 15.151704 0.0153520661 15.151704 17.6304347 0 17.6304347"></polygon>
    </defs>
    <g id="SPLASH" stroke="none" stroke-width="1" fill="none" fill-rule="evenodd">
        <g id="SPLASH-SCREEN_01" transform="translate(-83.000000, -162.000000)">
            <g id="LOGO_PLN-MARKETPLACE" transform="translate(83.000000, 162.000000)">
                <g id="Group-3" transform="translate(45.520661, 0.084793)">
                    <mask id="mask-2" fill="white">
                        <use xlink:href="#path-1"></use>
                    </mask>
                    <g id="Clip-2"></g>
                    <path d="M18.5958,11.3677587 C18.5958,9.57698182 18.1056347,8.2086843 17.1260479,7.26182479 C16.1449736,6.31645289 14.5405934,5.84265124 12.310081,5.84265124 L7.19049421,5.84265124 L7.19049421,16.8422876 L12.310081,16.8422876 C16.5000645,16.8422876 18.5958,15.0174446 18.5958,11.3677587 L18.5958,11.3677587 Z M7.19049421,22.5704529 L7.19049421,35.8511802 L0.0430066116,35.8511802 L0.0430066116,0.063907438 L13.0706926,0.063907438 C17.2944446,0.063907438 20.4792545,1.07770909 22.6258661,3.10546116 C24.7712876,5.1329157 25.8442959,7.88780826 25.8442959,11.3677587 C25.8442959,14.7818083 24.7370727,17.5014446 22.5244116,19.5288992 C20.3107091,21.5568 17.1592215,22.5704529 13.0706926,22.5704529 L7.19049421,22.5704529 Z" id="Fill-1" fill="#252525" mask="url(#mask-2)"></path>
                </g>
                <g id="Group-6" transform="translate(76.016529, 0.084793)">
                    <mask id="mask-4" fill="white">
                        <use xlink:href="#path-3"></use>
                    </mask>
                    <g id="Clip-5"></g>
                    <polygon id="Fill-4" fill="#252525" mask="url(#mask-4)" points="7.1593438 30.3766215 19.1727818 30.3766215 19.1727818 35.8511504 0.0120049587 35.8511504 0.0120049587 0.063877686 7.1593438 0.063877686"></polygon>
                </g>
                <g id="Group-9" transform="translate(99.371901, 0.084793)">
                    <mask id="mask-6" fill="white">
                        <use xlink:href="#path-5"></use>
                    </mask>
                    <g id="Clip-8"></g>
                    <polygon id="Fill-7" fill="#252525" mask="url(#mask-6)" points="30.3879719 35.8511802 23.2404843 35.8511802 7.2227157 11.520238 7.2227157 35.8511802 0.0752280992 35.8511802 0.0752280992 0.063907438 7.2227157 0.063907438 23.2404843 24.5979074 23.2404843 0.063907438 30.3879719 0.063907438"></polygon>
                </g>
                <path d="M13.1353289,9.82542645 L9.35458512,6.0448314 C8.40013884,5.09023636 6.85273388,5.09023636 5.89813884,6.04468264 C4.94369256,6.99927769 4.94369256,8.5468314 5.89813884,9.50127769 L9.67888264,13.2818727 L13.1353289,9.82542645 Z" id="Fill-10" fill="#62DCCB"></path>
                <path d="M21.2513355,0.863479339 L10.9354017,11.1794132 C10.8944926,11.2203223 10.8512033,11.2582562 10.807914,11.2958926 C10.7722116,11.3260909 10.7360628,11.3556942 10.699319,11.3841074 L10.699319,11.3841074 C9.84796364,12.0426694 8.6342281,12.0936942 7.80756694,11.4105868 L9.65427769,13.2572975 L9.65219504,13.2595289 L10.3985256,14.0015455 L10.9831537,14.5861736 C10.9833025,14.5863223 10.9833025,14.5863223 10.9833025,14.5864711 C10.9836,14.5866198 10.9837488,14.5869174 10.9840463,14.5872149 C11.0570876,14.6601074 11.1342942,14.725562 11.2135835,14.7872975 C11.2305421,14.8003884 11.2477983,14.812438 11.2649058,14.8250826 C11.3437488,14.8832479 11.4251207,14.9365041 11.5088727,14.9839587 L11.5169058,14.9888678 C11.5169058,14.988719 11.5170545,14.9888678 11.5170545,14.9888678 C11.5170545,14.9888678 11.5170545,14.9888678 11.5172033,14.9888678 C11.711038,15.0977603 11.9163273,15.1776446 12.1274182,15.229562 C12.520443,15.3261074 12.9314678,15.3241736 13.3236,15.2231653 C13.3249388,15.2228678 13.3396661,15.2191488 13.3407074,15.2188512 C13.5413851,15.165595 13.7359636,15.086157 13.9204264,14.9809835 C13.9225091,14.9799421 13.978443,14.9469174 13.9800793,14.945876 C14.036757,14.9113636 14.0922446,14.8743223 14.1465421,14.8347521 C14.147881,14.8338595 14.2090215,14.7884876 14.2134843,14.7849174 C14.2426413,14.7623058 14.2713521,14.7388017 14.2997653,14.7145537 L14.2997653,14.7145537 C14.3445421,14.6761736 14.389319,14.6377934 14.4318645,14.595843 C14.4348397,14.5930165 24.7079306,4.31992562 24.7079306,4.31992562 C25.6608893,3.36696694 25.6608893,1.81643802 24.7079306,0.863479339 C23.7548231,-0.0894793388 22.2042942,-0.0894793388 21.2513355,0.863479339" id="Fill-12" fill="#454E74"></path>
                <path d="M22.6519884,26.2593669 L26.4325835,30.039962 C27.3871785,30.994557 28.9345835,30.994557 29.8891785,30.0401107 C30.8436248,29.0855157 30.8436248,27.537962 29.8890298,26.5835157 L26.1084347,22.8029207 L22.6519884,26.2593669 Z" id="Fill-14" fill="#62DCCB"></path>
                <g id="Group-18" transform="translate(10.264463, 20.762479)">
                    <mask id="mask-8" fill="white">
                        <use xlink:href="#path-7"></use>
                    </mask>
                    <g id="Clip-17"></g>
                    <path d="M4.27144463,14.4587603 L14.5873785,4.14297521 C14.6284364,4.10191736 14.6715769,4.06398347 14.7150149,4.02649587 C14.7505686,3.99614876 14.7867174,3.96669421 14.8234612,3.93828099 L14.8234612,3.93813223 C15.6749653,3.27971901 16.8887008,3.22854545 17.7152132,3.91165289 L15.8685025,2.06494215 L15.8705851,2.06271074 L15.1242545,1.32069421 L14.5396264,0.736066116 L14.5394777,0.735917355 C14.5391802,0.735619835 14.5390314,0.735322314 14.5387339,0.735024793 C14.4658413,0.662132231 14.388486,0.596826446 14.3093455,0.535090909 C14.2923868,0.52185124 14.2749818,0.509801653 14.2578744,0.497305785 C14.1790314,0.438991736 14.0976595,0.385735537 14.0139074,0.338280992 C14.0112298,0.336644628 14.0085521,0.335008264 14.0058744,0.333520661 C14.0058744,0.333520661 14.0058744,0.333520661 14.0057256,0.333371901 L14.0057256,0.333371901 C13.8117421,0.224479339 13.6064529,0.144595041 13.395362,0.092677686 C13.0023372,-0.00371900826 12.5913124,-0.00178512397 12.1991802,0.0992231405 C12.1978413,0.0995206612 12.183114,0.103239669 12.1820727,0.10338843 C11.981395,0.156644628 11.7868165,0.236082645 11.6023537,0.341256198 C11.6002711,0.342446281 11.544486,0.375471074 11.5427008,0.376363636 C11.4861719,0.410876033 11.4306843,0.447917355 11.3763868,0.487487603 C11.3748992,0.488380165 11.3139074,0.533752066 11.3094446,0.537322314 C11.2801388,0.559933884 11.2514281,0.583438017 11.2231636,0.60768595 L11.2230149,0.60768595 C11.2230149,0.607834711 11.2230149,0.607834711 11.2230149,0.607834711 C11.178238,0.646066116 11.1336099,0.684595041 11.0909157,0.726396694 C11.0879405,0.729371901 0.814998347,11.0024628 0.814998347,11.0024628 C-0.138109091,11.9554215 -0.138109091,13.5058017 0.814998347,14.4587603 C1.76795702,15.4118678 3.31848595,15.4118678 4.27144463,14.4587603" id="Fill-16" fill="#454E74" mask="url(#mask-8)"></path>
                </g>
                <path d="M26.1105917,13.2840298 L29.8911868,9.50343471 C30.8457818,8.54883967 30.8457818,7.00143471 29.8913355,6.04698843 C28.9367405,5.09239339 27.3891868,5.09239339 26.4347405,6.04698843 L22.6541455,9.82758347 L26.1105917,13.2840298 Z" id="Fill-19" fill="#62DCCB"></path>
                <path d="M35.0725388,21.4001107 L24.756605,11.0841769 C24.7155471,11.043119 24.677762,10.9999785 24.6401256,10.9565405 C24.6099273,10.9209868 24.5804727,10.884838 24.5519107,10.8480942 C23.8933488,9.99673884 23.842324,8.78285455 24.5254314,7.95634215 L22.6787207,9.80305289 L22.6764893,9.80097025 L21.9344727,10.5473008 L21.3498446,11.1319289 C21.3496959,11.1319289 21.3496959,11.1320777 21.3495471,11.1320777 C21.3493983,11.1323752 21.3491008,11.132524 21.3488033,11.1328215 C21.2759107,11.205714 21.2104562,11.2830694 21.1487207,11.3623587 C21.1356298,11.3791686 21.1235802,11.3965736 21.1109355,11.413681 C21.0527702,11.492524 20.999514,11.5738959 20.9520595,11.6576479 C20.9504231,11.6603256 20.9487868,11.6630033 20.9472992,11.665681 C20.9472992,11.665681 20.9471504,11.665681 20.9471504,11.6658298 L20.9471504,11.6658298 C20.8382579,11.8598132 20.7583736,12.0651025 20.7064562,12.2761934 C20.6100595,12.6692182 20.6118446,13.080243 20.7128529,13.4723752 C20.7132992,13.473714 20.7168694,13.4884413 20.7171669,13.4894826 C20.7704231,13.6901603 20.8498612,13.8847388 20.954886,14.0692017 C20.956076,14.0712843 20.9892496,14.1272182 20.9901421,14.1288545 C21.0246545,14.1853835 21.0616959,14.2408711 21.1012661,14.2951686 C21.1021587,14.2965074 21.1475306,14.3576479 21.1511008,14.3622595 C21.1737124,14.3914165 21.1972165,14.4201273 21.2214645,14.4485405 L21.2214645,14.4485405 L21.2214645,14.4485405 C21.2598446,14.4933174 21.2983736,14.5380942 21.3401752,14.5806397 C21.3430017,14.5836149 31.6160926,24.856557 31.6160926,24.856557 C32.5690512,25.8096645 34.1195802,25.8096645 35.0725388,24.856557 C36.0254975,23.9035983 36.0254975,22.3530694 35.0725388,21.4001107" id="Fill-21" fill="#454E74"></path>
                <path d="M9.67672562,22.8006893 L5.89598182,26.5814331 C4.94153554,27.5358793 4.94153554,29.0834331 5.89598182,30.0378793 C6.8504281,30.9923256 8.39798182,30.9923256 9.35257686,30.0378793 L13.1331719,26.2571355 L9.67672562,22.8006893 Z" id="Fill-23" fill="#62DCCB"></path>
                <g id="Group-27" transform="translate(0.000000, 10.498017)">
                    <mask id="mask-10" fill="white">
                        <use xlink:href="#path-9"></use>
                    </mask>
                    <g id="Clip-26"></g>
                    <path d="M0.714704132,4.18666612 L11.030638,14.5026 C11.0716959,14.5436579 11.109481,14.5867983 11.1471174,14.6300876 C11.1774645,14.6657901 11.206919,14.7019388 11.2353322,14.7386826 L11.2353322,14.7386826 C11.8938942,15.590038 11.944919,16.8039223 11.2619603,17.6304347 L13.1086711,15.783724 L13.1107537,15.7858066 L13.8527702,15.039476 L14.4373983,14.4548479 C14.4375471,14.4546992 14.4375471,14.4546992 14.4376959,14.4546992 C14.4378446,14.4544017 14.4381421,14.4542529 14.4384397,14.4539554 C14.511481,14.380914 14.5767868,14.3037074 14.6385223,14.2244182 C14.651762,14.2076083 14.6636628,14.1902033 14.6763074,14.1730959 C14.7344727,14.0941041 14.7877289,14.012881 14.8351835,13.9291289 L14.8400926,13.9210959 C14.8400926,13.9210959 14.8400926,13.9210959 14.8400926,13.9209471 L14.8402413,13.9209471 C14.9491339,13.7269636 15.0290182,13.5216744 15.0807868,13.3105835 C15.1773322,12.9175587 15.1753983,12.5065339 15.0743901,12.1144017 C15.0740926,12.1130628 15.0703736,12.0983355 15.070076,12.0972942 C15.0169686,11.8966165 14.9375306,11.702038 14.832357,11.5175752 C14.8311669,11.5154926 14.7981421,11.4595587 14.7971008,11.4579223 C14.7625884,11.4013934 14.7256959,11.3459058 14.6861256,11.2916083 C14.6850843,11.2901207 14.6397124,11.2289802 14.6362909,11.2245174 C14.6135306,11.1953603 14.5901752,11.1666496 14.5659273,11.1382364 C14.5659273,11.1382364 14.5657785,11.1382364 14.5657785,11.1382364 L14.5657785,11.1382364 C14.5273983,11.0934595 14.4890182,11.0486826 14.4470678,11.0061372 C14.4442413,11.003162 4.17115041,0.730071074 4.17115041,0.730071074 C3.21819174,-0.222887603 1.66766281,-0.222887603 0.714704132,0.730071074 C-0.238254545,1.68317851 -0.238254545,3.23370744 0.714704132,4.18666612" id="Fill-25" fill="#454E74" mask="url(#mask-10)"></path>
                </g>
                <polygon id="Fill-28" fill="#252525" points="148.979142 13.2119702 148.979142 22.4807802 147.761836 22.4807802 147.761836 15.0844165 144.806117 22.4807802 143.722696 22.4807802 140.75344 15.1111934 140.75344 22.4807802 139.536283 22.4807802 139.536283 13.2119702 140.994134 13.2119702 144.284415 20.9960033 147.521142 13.2119702"></polygon>
                <path d="M157.445271,19.3508777 L155.719949,14.5896545 L153.994626,19.3508777 L157.445271,19.3508777 Z M157.793073,20.3008612 L153.646825,20.3008612 L152.857651,22.480795 L151.546924,22.480795 L155.037734,13.2253736 L156.415255,13.2253736 L159.892974,22.480795 L158.582098,22.480795 L157.793073,20.3008612 Z" id="Fill-30" fill="#252525"></path>
                <path d="M163.677808,17.745962 L165.456684,17.745962 C166.838668,17.745962 167.529957,17.1399124 167.529957,15.9272182 C167.529957,14.7143752 166.838668,14.1080281 165.456684,14.1080281 L163.677808,14.1080281 L163.677808,17.745962 Z M167.462866,22.4808545 L165.001924,18.6290033 L163.677808,18.6290033 L163.677808,22.4808545 L162.460651,22.4808545 L162.460651,13.0513835 L165.563792,13.0513835 C166.633676,13.0513835 167.436089,13.3076975 167.971031,13.8203256 C168.506122,14.3334 168.773593,15.0132347 168.773593,15.860276 C168.773593,16.6272843 168.559676,17.2443421 168.131544,17.7126397 C167.70356,18.1806397 167.083825,18.472805 166.272486,18.588838 L168.840536,22.4808545 L167.462866,22.4808545 Z" id="Fill-32" fill="#252525"></path>
                <polygon id="Fill-34" fill="#252525" points="173.936306 17.7191554 178.242917 22.4808248 176.74505 22.4808248 172.812868 18.0803455 172.812868 22.4808248 171.595711 22.4808248 171.595711 13.0513537 172.812868 13.0513537 172.812868 17.4249074 176.758438 13.0513537 178.242917 13.0513537"></polygon>
                <polygon id="Fill-36" fill="#252525" points="182.001332 14.0410413 182.001332 17.2646777 185.585712 17.2646777 185.585712 18.2008264 182.001332 18.2008264 182.001332 21.4911074 185.986919 21.4911074 185.986919 22.4808099 180.784026 22.4808099 180.784026 13.0513388 185.986919 13.0513388 185.986919 14.0410413"></polygon>
                <polygon id="Fill-38" fill="#252525" points="194.667307 13.0513686 194.667307 14.0410711 192.005688 14.0410711 192.005688 22.4808397 190.788531 22.4808397 190.788531 14.0410711 188.126911 14.0410711 188.126911 13.0513686"></polygon>
                <path d="M144.023564,30.5726132 C144.349051,30.260514 144.511646,29.8194397 144.511646,29.2484975 C144.511646,28.6601504 144.349051,28.2117868 144.023564,27.9041504 C143.698076,27.5966628 143.165217,27.4428446 142.425431,27.4428446 L140.753514,27.4428446 L140.753514,31.0406132 L142.425431,31.0406132 C143.165217,31.0406132 143.698076,30.8848612 144.023564,30.5726132 L144.023564,30.5726132 Z M140.753514,32.0570926 L140.753514,35.8556876 L139.536357,35.8556876 L139.536357,26.4262165 L142.53239,26.4262165 C143.6112,26.4262165 144.418076,26.6783653 144.953167,27.181919 C145.488258,27.6857702 145.755729,28.3748281 145.755729,29.2484975 C145.755729,30.1312413 145.479183,30.8201504 144.92639,31.3147785 C144.373448,31.8098529 143.575498,32.0570926 142.53239,32.0570926 L140.753514,32.0570926 Z" id="Fill-40" fill="#252525"></path>
                <polygon id="Fill-42" fill="#252525" points="149.728031 34.9061355 153.071866 34.9061355 153.071866 35.8556727 148.510726 35.8556727 148.510726 26.4263504 149.728031 26.4263504"></polygon>
                <path d="M160.829137,32.7258595 L159.103815,27.9646364 L157.378493,32.7258595 L160.829137,32.7258595 Z M161.176939,33.6756942 L157.030691,33.6756942 L156.241517,35.8557769 L154.93079,35.8557769 L158.421749,26.6003554 L159.799269,26.6003554 L163.27684,35.8557769 L161.965964,35.8557769 L161.176939,33.6756942 Z" id="Fill-44" fill="#252525"></path>
                <path d="M172.866362,27.1819339 C173.615519,27.7484132 174.132461,28.5216694 174.417932,29.502595 L173.133982,29.502595 C172.893288,28.8785455 172.505172,28.3812397 171.970379,28.0112727 C171.435436,27.6413058 170.779998,27.4562479 170.004213,27.4562479 C169.38894,27.4562479 168.83823,27.6057521 168.352379,27.9041653 C167.866379,28.2030248 167.483023,28.6310083 167.202164,29.1881157 C166.921304,29.7455207 166.780874,30.3987273 166.780874,31.1477355 C166.780874,31.8879669 166.921304,32.5341818 167.202164,33.0869752 C167.483023,33.6402149 167.866379,34.0656694 168.352379,34.3643802 C168.83823,34.6632397 169.38894,34.8124463 170.004213,34.8124463 C170.779998,34.8124463 171.435436,34.6275372 171.970379,34.2572727 C172.505172,33.8873058 172.893288,33.3902975 173.133982,32.7660992 L174.417932,32.7660992 C174.132461,33.746876 173.615519,34.5205785 172.866362,35.0867603 C172.117502,35.6529421 171.167668,35.9360331 170.017602,35.9360331 C169.134709,35.9360331 168.354461,35.7332727 167.676858,35.3273058 C166.999255,34.9217851 166.470858,34.3556033 166.092114,33.6286116 C165.712924,32.9022149 165.523552,32.0751074 165.523552,31.1477355 C165.523552,30.211438 165.712924,29.3777851 166.092114,28.6467769 C166.470858,27.9156198 166.999255,27.3470579 167.676858,26.9412397 C168.354461,26.535719 169.134709,26.3326612 170.017602,26.3326612 C171.167668,26.3326612 172.117502,26.6160496 172.866362,27.1819339" id="Fill-46" fill="#252525"></path>
                <polygon id="Fill-48" fill="#252525" points="178.603959 27.416038 178.603959 30.6395256 182.188339 30.6395256 182.188339 31.5758231 178.603959 31.5758231 178.603959 34.8659554 182.589694 34.8659554 182.589694 35.8556579 177.386802 35.8556579 177.386802 26.4263355 182.589694 26.4263355 182.589694 27.416038"></polygon>
            </g>
        </g>
    </g>
</svg>